<?xml version="1.0" standalone="no"?>
<!DOCTYPE svg PUBLIC "-//W3C//DTD SVG 20010904//EN"
 "http://www.w3.org/TR/2001/REC-SVG-20010904/DTD/svg10.dtd">
<svg version="1.0" xmlns="http://www.w3.org/2000/svg"
 width="740.000000pt" height="1295.000000pt" viewBox="0 0 740.000000 1295.000000"
 preserveAspectRatio="xMidYMid meet">

<g transform="translate(0.000000,1295.000000) scale(0.100000,-0.100000)"
fill="#000000" stroke="none">
<path d="M3272 12270 c-41 -11 -104 -34 -140 -52 -84 -42 -200 -149 -238 -222
l-28 -54 -30 15 c-22 11 -50 14 -106 11 -137 -8 -282 -97 -415 -254 -27 -33
-41 -52 -30 -44 11 8 2 -4 -20 -26 -149 -151 -255 -492 -300 -959 -53 -562
-87 -786 -155 -1023 -73 -252 -154 -430 -285 -624 -47 -71 -83 -128 -80 -128
4 0 -5 -10 -17 -22 -35 -33 -226 -281 -284 -368 -74 -109 -158 -264 -193 -351
-44 -109 -60 -179 -73 -305 -10 -96 -9 -123 6 -199 9 -49 30 -121 46 -159 16
-39 36 -109 44 -155 8 -45 17 -86 20 -89 3 -3 6 26 6 64 0 166 29 244 153 409
81 109 233 272 222 240 -96 -286 -110 -345 -126 -530 -6 -75 -21 -168 -36
-220 -67 -245 -27 -478 107 -610 l50 -50 -21 44 c-26 55 -44 140 -36 171 4 14
14 34 22 45 15 19 15 19 31 -3 8 -12 23 -26 34 -32 17 -9 17 -8 2 40 l-15 49
78 96 c42 53 79 94 82 92 2 -2 -2 -38 -8 -78 -31 -197 27 -493 112 -575 34
-32 36 -27 10 24 -24 49 -51 143 -50 179 0 22 10 9 49 -67 35 -69 65 -111 110
-155 l61 -60 -20 45 c-11 25 -23 63 -27 85 l-7 40 69 -65 69 -65 8 -105 c9
-125 1 -116 167 -190 132 -60 223 -85 336 -95 l79 -7 0 183 c0 192 10 260 57
409 28 89 78 182 94 176 9 -3 11 1 7 12 -5 14 -3 15 8 5 7 -7 21 -13 31 -13
10 0 18 -7 18 -15 0 -8 4 -15 10 -15 5 0 7 6 4 13 -3 9 2 13 18 11 13 -1 26
-3 31 -3 4 -1 7 -9 8 -18 0 -15 2 -15 7 -3 9 19 33 25 26 6 -4 -10 8 -13 50
-13 34 0 65 -6 80 -16 24 -16 25 -18 10 -53 -10 -25 -12 -40 -5 -48 15 -17 5
-78 -14 -88 -29 -17 -15 -34 53 -62 108 -47 118 -66 33 -66 -48 0 -78 -19 -77
-48 1 -18 53 -60 92 -72 38 -13 41 -20 17 -56 -16 -24 -15 -26 21 -63 21 -21
36 -45 35 -52 -1 -8 1 -48 5 -89 4 -47 1 -128 -8 -217 -13 -123 -13 -149 0
-195 22 -82 21 -425 -2 -514 -9 -38 -21 -72 -27 -75 -5 -4 -12 -85 -15 -187
-5 -185 -11 -217 -34 -194 -6 6 -26 12 -44 12 -18 0 -35 6 -38 13 -3 6 -3 -10
-1 -38 6 -68 -37 127 -75 345 -58 327 -88 471 -145 695 -14 55 -35 139 -47
188 -12 48 -25 87 -29 87 -6 0 32 -170 51 -225 17 -49 117 -521 144 -681 14
-82 41 -232 61 -334 72 -370 99 -572 85 -637 -16 -77 -22 -138 -12 -128 13 13
32 138 32 212 0 32 -6 90 -14 128 -8 39 -17 97 -19 130 l-6 60 11 -47 c5 -27
14 -48 19 -48 4 0 11 24 15 52 4 29 9 46 12 38 3 -8 8 -17 12 -20 4 -3 20 -30
36 -60 28 -54 54 -85 77 -93 16 -5 -28 -99 -55 -118 -11 -8 -26 -20 -34 -27
-10 -10 -13 -7 -17 15 -2 16 -5 4 -6 -27 -2 -30 -6 -80 -10 -110 -3 -30 -5
-63 -3 -73 4 -18 4 -18 18 0 14 16 14 12 9 -42 -4 -33 -13 -82 -21 -109 -8
-28 -14 -92 -14 -147 0 -74 -4 -100 -15 -109 -8 -7 -15 -20 -15 -29 0 -9 -7
-29 -16 -46 -17 -32 -31 -107 -41 -217 -3 -37 -9 -66 -13 -63 -21 13 -16 -112
15 -360 8 -66 13 -130 11 -143 -3 -12 -1 -20 4 -17 12 7 24 -58 21 -116 -1
-23 -6 -27 -36 -31 -19 -2 -43 0 -52 5 -13 7 -11 2 5 -14 22 -24 26 -24 215
-24 167 0 196 2 226 18 18 10 36 27 38 38 8 29 23 23 23 -10 0 -15 3 -55 6
-88 7 -60 6 -60 -24 -74 -21 -9 -34 -23 -38 -41 -3 -16 -10 -28 -15 -28 -18 0
-49 -35 -49 -57 0 -12 -4 -24 -9 -27 -4 -3 -11 -19 -14 -35 -6 -29 -7 -29 -93
-36 -48 -4 -108 -4 -133 1 -50 10 -44 1 -81 142 -6 23 -16 42 -21 42 -6 0 -26
-15 -45 -34 -30 -30 -34 -40 -34 -88 0 -30 10 -90 21 -134 12 -43 33 -124 48
-179 26 -100 26 -100 56 -98 17 2 119 4 227 5 192 3 197 4 222 27 32 30 44 22
20 -15 -14 -20 -15 -29 -6 -32 6 -2 12 -9 12 -15 0 -8 -16 -11 -47 -9 l-48 4
35 -30 c48 -40 75 -92 66 -125 -3 -15 -13 -27 -20 -27 -11 0 -8 -14 10 -58 38
-93 -2 -101 -53 -10 -43 76 -51 81 -96 61 l-36 -17 47 -15 c38 -13 51 -24 71
-59 13 -24 21 -45 19 -48 -3 -2 -24 14 -47 36 -28 26 -51 40 -69 40 -15 0 -44
5 -65 11 -29 8 -55 6 -113 -7 -41 -9 -78 -14 -81 -11 -15 15 48 56 103 67 32
6 72 15 88 21 16 5 40 9 54 9 37 0 24 7 -43 24 -99 26 -121 15 -219 -123 -85
-119 -95 -139 -151 -301 -48 -140 -50 -150 -22 -190 36 -55 141 -80 337 -80
182 0 284 29 326 91 l19 29 12 -37 c6 -21 12 -56 13 -78 2 -52 14 -85 22 -63
4 8 17 18 30 21 38 9 91 32 128 55 19 12 43 22 53 22 10 0 15 5 12 10 -3 6 -2
10 4 10 5 0 12 -3 15 -8 2 -4 26 -23 53 -41 l48 -34 -33 33 c-25 25 -32 38
-27 54 14 44 14 84 0 96 -8 7 -15 16 -15 21 0 5 33 -14 73 -41 77 -52 111 -66
66 -27 -32 26 -49 74 -49 133 0 24 -4 44 -10 44 -5 0 -10 4 -10 9 0 5 17 1 38
-9 114 -55 442 -85 610 -56 102 18 166 43 168 66 0 8 -1 10 -3 3 -6 -18 -40
-25 -62 -14 -32 17 -53 43 -47 57 6 15 -12 64 -23 64 -3 0 -35 18 -70 40 -52
32 -61 41 -46 46 10 4 32 2 49 -4 l31 -11 -31 27 c-78 67 -154 120 -159 112
-4 -6 -20 -10 -37 -10 -18 0 -57 -7 -89 -16 -45 -13 -59 -21 -63 -39 -7 -26
-34 -39 -60 -29 -38 14 -3 69 59 93 l30 11 -30 -4 c-58 -9 -66 17 -15 45 24
13 24 13 -24 21 -28 4 -53 5 -58 2 -5 -3 -20 -28 -34 -55 -25 -50 -39 -57 -57
-28 -6 10 2 32 27 74 46 76 78 105 119 105 l31 0 -34 -36 -35 -35 45 6 c88 12
93 14 79 31 -28 34 -67 44 -166 44 l-98 0 -20 -30 c-13 -20 -26 -29 -37 -26
-11 2 -18 -2 -18 -11 0 -10 6 -12 23 -8 21 7 21 6 5 -11 -17 -17 -18 -17 -32
1 -10 14 -11 25 -3 42 6 13 14 23 19 23 4 0 8 8 8 18 0 10 16 33 35 52 42 41
34 55 -29 46 -42 -7 -47 -10 -66 -54 -12 -26 -33 -59 -47 -74 -29 -30 -63 -37
-63 -14 0 8 -6 17 -12 20 -7 3 -1 4 13 1 15 -3 31 1 37 8 6 6 22 57 37 112 15
55 30 106 33 113 3 10 -4 12 -29 8 -106 -16 -139 -17 -139 -2 0 8 6 16 13 19
8 3 6 11 -8 27 l-20 23 20 -8 c11 -4 30 -10 41 -12 28 -6 137 22 171 44 15 10
47 24 72 33 l46 15 34 110 c27 89 34 128 35 202 1 91 1 92 -33 127 -40 41 -85
61 -99 43 -5 -7 -13 -22 -17 -35 -6 -22 -7 -22 -21 -5 -16 22 -18 75 -2 91 19
19 -10 42 -56 43 -34 1 -29 3 24 10 63 8 109 31 118 60 5 12 2 12 -13 -1 -17
-14 -18 -14 -7 7 7 12 11 26 10 30 0 4 1 19 5 33 3 14 11 54 18 90 7 36 18 74
26 86 7 11 10 24 6 27 -3 4 -1 7 6 7 8 0 11 8 8 20 -3 12 -1 18 5 14 7 -4 8 5
3 27 -4 25 -3 30 4 19 9 -13 11 -12 12 5 1 37 7 70 32 175 14 58 30 134 35
170 39 237 47 270 76 335 72 156 81 200 70 338 -12 153 -9 328 10 472 41 325
39 906 -4 1315 -18 172 -23 256 -16 303 6 40 10 46 34 49 19 2 28 10 30 25 4
29 -44 42 -158 44 -47 1 -76 3 -65 5 104 21 136 29 175 42 25 9 48 21 52 26
11 15 10 48 -1 42 -4 -3 -17 4 -27 15 -15 17 -16 24 -6 52 6 18 14 58 18 90 4
36 11 57 20 57 7 0 14 6 17 13 2 6 7 -19 11 -58 9 -83 36 -258 41 -263 2 -2
17 25 33 60 38 79 69 189 77 276 6 60 -6 218 -22 281 -4 17 -2 22 8 19 8 -3
33 -56 57 -119 42 -109 43 -118 40 -201 -4 -75 -9 -96 -41 -160 -20 -41 -54
-95 -76 -120 l-40 -45 40 14 c67 23 114 50 178 103 34 28 61 48 61 44 0 -9
-39 -64 -69 -98 l-26 -29 34 19 c84 47 192 215 243 376 21 66 23 91 22 266 0
159 2 191 13 177 20 -29 26 -97 20 -253 -5 -167 -31 -284 -91 -425 -20 -44
-34 -82 -32 -84 7 -7 215 217 249 269 76 116 137 285 137 380 0 39 15 52 24
21 13 -49 16 -147 6 -227 -6 -49 -9 -90 -7 -92 2 -3 20 20 40 50 35 53 72 133
96 208 7 20 25 53 40 72 40 51 106 180 127 251 25 83 25 266 0 352 -11 38 -23
60 -29 56 -6 -4 -8 0 -4 11 4 9 3 15 -2 12 -10 -7 -33 42 -25 55 3 5 1 8 -4 7
-5 -2 -30 25 -56 59 -26 34 -79 92 -119 129 -40 37 -63 62 -52 56 43 -22 106
-80 159 -145 31 -38 56 -65 56 -61 0 19 -66 93 -213 238 -151 148 -148 152 13
17 36 -30 -23 35 -130 145 -107 109 -166 172 -130 139 104 -96 130 -115 65
-46 -33 35 -52 61 -42 57 12 -4 2 14 -26 47 -78 92 -195 269 -202 306 -2 10
-21 64 -43 118 -44 110 -91 273 -118 408 -10 49 -19 84 -21 78 -5 -14 38 -219
68 -329 12 -44 41 -123 65 -176 23 -54 39 -98 34 -98 -12 0 -94 202 -123 305
-26 90 -51 216 -62 310 -3 28 -10 239 -15 470 -5 231 -13 445 -19 475 -5 30
-15 100 -21 155 -24 202 -45 322 -96 530 -4 17 -4 18 6 3 5 -9 23 -72 39 -140
32 -132 41 -132 15 2 -32 172 -113 395 -135 373 -6 -6 -6 -19 0 -39 9 -24 9
-26 -2 -10 -6 11 -24 33 -38 50 -15 17 -41 54 -58 82 -17 29 -47 64 -67 79
-19 15 -33 30 -30 33 4 3 16 -4 29 -15 50 -45 48 -32 -3 22 -47 49 -50 55 -20
35 19 -13 46 -33 59 -44 13 -12 20 -14 16 -6 -8 13 -7 13 8 1 19 -15 23 -36 5
-25 -7 4 -8 3 -4 -5 4 -6 11 -9 16 -6 5 3 24 -14 43 -37 162 -203 245 -596
277 -1308 6 -123 7 -60 4 210 -7 561 -27 731 -112 960 -66 177 -142 309 -234
406 -27 29 -47 57 -44 62 3 5 -18 31 -47 58 l-52 49 45 -50 45 -50 -40 35
c-22 19 -41 36 -43 37 -2 0 -5 9 -6 18 -1 9 -16 28 -32 41 -16 14 -23 23 -17
19 7 -3 20 -2 28 2 13 8 11 14 -13 38 -15 17 -34 39 -42 49 -15 19 -14 19 15
2 l30 -18 -30 28 c-17 16 -42 38 -57 50 -15 12 -28 27 -30 34 -4 17 -72 80
-87 80 -6 0 -11 4 -11 10 0 16 -154 88 -246 115 -109 32 -252 34 -362 5z m96
-37 c-16 -2 -40 -2 -55 0 -16 2 -3 4 27 4 30 0 43 -2 28 -4z m64 -65 c81 -17
44 -20 -57 -4 -74 11 -82 14 -43 15 26 0 71 -4 100 -11z m-34 -35 c-10 -2 -28
-2 -40 0 -13 2 -5 4 17 4 22 1 32 -1 23 -4z m-28 -43 c11 -8 7 -9 -15 -4 -37
8 -45 14 -19 14 10 0 26 -5 34 -10z m0 -40 c20 -6 21 -8 5 -8 -11 0 -31 4 -45
8 -20 6 -21 8 -5 8 11 0 31 -4 45 -8z m-10 -21 c30 -6 62 -16 70 -21 11 -7 8
-8 -10 -3 -14 3 -54 12 -88 20 -35 7 -67 17 -70 20 -4 4 4 4 18 1 14 -2 50
-10 80 -17z m98 -59 c34 -16 62 -32 62 -35 0 -3 -10 0 -22 6 -13 7 -61 25
-108 41 -70 23 -77 27 -40 23 25 -3 73 -19 108 -35z m-65 -62 c15 -6 27 -14
27 -18 0 -4 12 -11 26 -14 15 -4 24 -9 22 -11 -5 -5 -101 22 -135 38 -13 6
-23 15 -23 20 0 10 37 3 83 -15z m698 -15 c13 -16 12 -17 -3 -4 -10 7 -18 15
-18 17 0 8 8 3 21 -13z m-638 -51 c51 -23 62 -37 22 -30 -13 3 -22 1 -19 -3 3
-5 12 -9 20 -9 8 0 14 -4 14 -10 0 -15 -20 -12 -86 10 -96 33 -91 30 -70 42
15 8 16 12 5 19 -28 17 66 1 114 -19z m-28 -63 c36 -12 65 -25 65 -29 0 -16
-50 -20 -102 -9 -62 13 -95 28 -63 29 20 1 20 1 1 15 -19 14 -19 15 7 15 15 0
56 -10 92 -21z m778 -119 c79 -74 138 -153 192 -259 31 -59 52 -131 39 -131
-1 0 -19 30 -39 68 -38 69 -89 135 -159 210 -22 23 -36 42 -31 42 5 0 -13 23
-40 51 -48 50 -46 59 4 15 l24 -21 -12 23 c-7 13 -34 39 -62 58 -27 20 -49 38
-49 41 0 12 72 -39 133 -97z m-726 40 c45 -20 57 -32 23 -23 -14 4 -20 0 -20
-11 0 -20 0 -20 -50 0 -23 9 -43 14 -46 11 -3 -3 15 -13 41 -22 25 -10 44 -20
41 -22 -2 -2 -41 10 -87 28 -62 24 -79 34 -64 39 13 5 15 9 7 14 -49 30 82 19
155 -14z m-340 -16 c178 -60 462 -205 577 -295 26 -22 51 -37 55 -35 3 2 6
-12 7 -32 1 -39 31 -72 66 -72 17 0 18 -3 9 -14 -10 -11 -8 -16 8 -21 11 -3
22 -18 26 -35 4 -16 15 -32 25 -35 11 -3 30 -21 42 -38 13 -18 29 -40 37 -49
19 -22 23 -49 8 -46 -7 1 -21 -3 -32 -9 -11 -6 -37 -13 -57 -17 -29 -5 -42
-14 -54 -38 -9 -18 -30 -45 -46 -62 -62 -65 -101 -186 -77 -239 13 -28 24 -32
122 -42 78 -8 92 -1 107 56 15 53 -2 110 -45 158 l-34 38 70 -18 c106 -26 143
-75 152 -198 1 -18 11 -28 39 -39 25 -10 38 -21 38 -34 0 -10 5 -18 10 -18 17
0 68 -89 85 -146 19 -66 19 -144 0 -217 -26 -99 -100 -227 -132 -227 -10 0
-13 -6 -9 -16 3 -8 2 -13 -3 -9 -5 3 -16 -2 -24 -10 -9 -8 -20 -15 -26 -15 -6
0 -11 -5 -11 -11 0 -5 -5 -7 -11 -4 -5 4 -19 -1 -30 -10 -10 -10 -33 -19 -49
-20 -17 -2 -39 -9 -48 -17 -17 -15 -85 -37 -177 -59 -27 -7 -55 -16 -62 -21
-16 -13 -228 -38 -320 -38 -79 0 -148 14 -298 60 -55 17 -107 32 -115 34 -8 2
-33 11 -55 20 -22 10 -59 26 -82 36 -24 11 -43 16 -43 13 0 -3 -8 1 -17 8 -15
12 -16 12 -10 -3 9 -26 0 -22 -35 15 -18 17 -25 23 -17 12 8 -11 -18 8 -58 43
-40 35 -92 94 -118 132 l-45 69 -47 -29 c-32 -21 -60 -30 -88 -30 -97 0 -253
124 -293 233 -53 142 2 282 117 302 81 14 114 -7 154 -97 41 -93 49 -107 63
-112 11 -4 14 9 14 72 0 124 19 299 41 386 40 158 169 410 300 586 99 134 216
240 265 240 12 0 71 -16 131 -36z m-757 -50 c0 -7 -5 -16 -11 -19 -5 -4 -15
-19 -20 -33 -10 -25 -11 -26 -24 -9 -10 13 -14 15 -18 5 -2 -7 -7 -11 -10 -8
-3 3 2 24 13 47 16 35 21 40 44 36 14 -3 26 -11 26 -19z m1810 -28 c22 -27 -5
-17 -31 10 -21 24 -22 26 -3 16 11 -6 26 -18 34 -26z m-1580 -79 c0 -2 -17
-19 -37 -38 l-37 -34 30 37 c25 31 44 46 44 35z m-52 -87 c-7 -11 -17 -20 -22
-20 -5 0 -1 9 9 20 10 11 20 20 22 20 2 0 -2 -9 -9 -20z m1786 -215 c10 -20
16 -41 14 -47 -3 -7 -14 8 -26 33 -12 25 -47 76 -77 114 l-56 70 64 -67 c36
-37 72 -84 81 -103z m-1833 90 c-17 -20 -31 -33 -31 -29 0 9 54 72 59 68 2 -2
-10 -19 -28 -39z m1815 -127 c13 -26 24 -53 23 -60 0 -10 -2 -10 -6 1 -4 10
-7 10 -13 1 -5 -8 -9 -7 -13 5 -4 9 -3 13 3 10 6 -3 10 -4 10 -1 0 8 -59 96
-98 146 l-35 45 52 -50 c29 -27 64 -71 77 -97z m-546 -427 c0 -12 -20 -25 -27
-18 -7 7 6 27 18 27 5 0 9 -4 9 -9z m-1703 -1134 c-2 -23 -3 -1 -3 48 0 50 1
68 3 42 2 -26 2 -67 0 -90z m1028 37 c147 -75 201 -143 243 -306 19 -74 23
-79 97 -152 56 -54 90 -78 121 -87 59 -18 38 -27 -64 -30 l-82 -2 -48 45 c-26
25 -104 82 -173 128 -68 45 -139 96 -156 113 l-33 31 0 153 c0 84 1 153 3 153
2 0 43 -21 92 -46z m-1268 -126 c-3 -8 -6 -5 -6 6 -1 11 2 17 5 13 3 -3 4 -12
1 -19z m140 -10 c-3 -8 -6 -5 -6 6 -1 11 2 17 5 13 3 -3 4 -12 1 -19z m50 -40
c-2 -13 -4 -3 -4 22 0 25 2 35 4 23 2 -13 2 -33 0 -45z m-207 -5 c-11 -17 -11
-17 -6 0 3 10 6 24 7 30 0 9 2 9 5 0 3 -7 0 -20 -6 -30z m-26 -125 c-8 -24
-28 -72 -43 -108 -16 -36 -33 -76 -39 -90 -8 -18 -11 -20 -11 -7 -1 10 10 39
23 65 13 26 31 72 41 102 16 49 31 80 41 80 2 0 -4 -19 -12 -42z m140 -32 c-3
-15 -8 -25 -11 -23 -2 3 -1 17 3 31 3 15 8 25 11 23 2 -3 1 -17 -3 -31z m63
-33 c-7 -81 -50 -209 -109 -333 -53 -110 -118 -224 -124 -218 -2 2 20 51 49
109 50 99 78 171 91 231 3 15 13 34 22 42 8 9 27 63 42 121 15 58 29 105 31
105 2 0 1 -26 -2 -57z m-86 -54 c-5 -13 -10 -19 -10 -12 -1 15 10 45 15 40 3
-2 0 -15 -5 -28z m-26 -84 c-9 -26 -19 -44 -21 -42 -2 2 4 25 13 50 9 25 19
44 21 42 3 -3 -3 -25 -13 -50z m2774 -245 c0 -13 -1 -13 -8 0 -5 8 -12 26 -15
40 l-7 25 15 -25 c9 -14 15 -32 15 -40z m20 -117 c17 -35 29 -63 26 -63 -5 0
-65 116 -65 126 0 12 6 2 39 -63z m145 -65 c15 -27 25 -48 22 -48 -7 0 -56 84
-56 95 0 11 1 9 34 -47z m-3085 -29 c-19 -12 -24 -2 -8 17 9 11 14 13 17 4 3
-7 -2 -16 -9 -21z m2991 1 c6 -11 8 -20 6 -20 -3 0 -10 9 -16 20 -6 11 -8 20
-6 20 3 0 10 -9 16 -20z m160 -80 c6 -11 8 -20 6 -20 -3 0 -10 9 -16 20 -6 11
-8 20 -6 20 3 0 10 -9 16 -20z m-102 -25 c-3 -3 -9 2 -12 12 -6 14 -5 15 5 6
7 -7 10 -15 7 -18z m182 -83 c28 -35 50 -65 47 -68 -5 -5 -59 60 -97 116 -30
45 -15 31 50 -48z m-2645 -14 c22 -16 68 -57 103 -90 51 -50 60 -63 47 -70 -8
-5 -15 -13 -15 -18 0 -35 -355 -545 -395 -567 -11 -7 30 -24 149 -62 198 -63
338 -93 415 -89 l56 3 48 70 c26 39 78 123 115 188 45 79 76 124 94 133 22 11
55 13 172 6 159 -9 179 -16 191 -73 4 -18 21 -39 43 -54 20 -14 31 -25 24 -25
-7 0 -11 -4 -8 -9 7 -11 -13 -9 -34 4 -11 6 -10 3 3 -12 10 -12 17 -36 17 -61
0 -39 -2 -42 -27 -42 -16 0 -66 7 -113 15 -96 17 -111 18 -90 6 8 -5 42 -12
75 -15 134 -16 162 -36 149 -109 -4 -23 -9 -36 -11 -29 -3 7 -23 12 -51 12
l-47 0 41 -19 c59 -27 65 -71 18 -134 l-16 -22 7 23 c6 21 4 22 -56 22 -68 0
-149 -25 -149 -45 0 -7 -8 -19 -17 -26 -15 -12 -16 -12 -8 1 5 9 -1 7 -16 -5
-26 -22 -43 -45 -44 -59 0 -5 -7 -11 -15 -13 -13 -4 -13 -3 0 6 13 9 12 11 -4
11 -10 0 -37 -13 -61 -29 -23 -15 -57 -30 -75 -33 -18 -3 -193 -1 -390 3 -410
9 -542 23 -659 71 -133 56 -174 114 -147 213 23 84 31 99 193 348 86 133 197
305 246 382 173 270 155 247 179 234 13 -7 41 -25 63 -41z m2095 -127 c19 -5
47 -12 62 -15 48 -11 144 -188 167 -311 22 -111 34 -137 83 -172 44 -32 46
-32 41 -11 -5 16 16 1 71 -52 100 -98 140 -174 140 -269 0 -89 -24 -139 -84
-168 -63 -32 -202 -32 -183 1 5 7 2 7 -8 -1 -10 -8 -19 -9 -29 -1 -12 8 -12 9
3 4 11 -3 16 -2 12 4 -3 6 -12 10 -20 10 -8 0 -17 5 -21 12 -4 7 -3 8 4 4 7
-4 12 -5 12 -2 0 14 -43 105 -117 246 -39 74 -43 91 -39 130 12 96 9 100 -62
93 -79 -7 -92 -12 -92 -33 0 -11 6 -20 13 -21 43 -2 77 -19 38 -19 -31 0 -91
27 -107 48 -18 23 -17 72 2 102 15 25 15 25 -3 5 -29 -32 -52 -30 -67 6 -8 18
-12 40 -9 48 4 13 3 13 -5 3 -7 -10 -15 -6 -36 18 -14 17 -26 37 -26 43 1 21
41 101 63 126 l22 24 -22 -12 c-13 -6 -23 -16 -23 -21 0 -6 -15 -10 -34 -10
-28 0 -36 -5 -46 -30 -7 -16 -10 -36 -7 -44 10 -25 -29 -6 -53 26 -31 42 -37
99 -14 122 13 14 28 17 60 13 40 -4 45 -2 66 29 45 65 155 99 248 75z m-3252
-271 c-7 -10 -14 -17 -17 -15 -4 4 18 35 25 35 2 0 -1 -9 -8 -20z m2972 -95
c-6 -19 -16 -35 -21 -35 -15 0 -10 50 9 82 15 27 17 28 20 9 2 -12 -2 -37 -8
-56z m542 10 c3 -13 1 -22 -3 -19 -9 5 -13 44 -5 44 2 0 6 -11 8 -25z m-3153
-242 c-12 -21 -31 -47 -42 -58 -12 -11 -16 -13 -11 -5 47 71 67 100 71 100 3
0 -5 -17 -18 -37z m3870 -331 c22 -55 26 -98 12 -120 -5 -8 -14 15 -25 65 -9
43 -19 90 -23 103 -10 42 13 11 36 -48z m-2679 -672 c0 -5 -9 -10 -21 -10 -11
0 -17 5 -14 10 3 6 13 10 21 10 8 0 14 -4 14 -10z m100 -5 c0 -10 -41 -11 -49
-1 -8 10 -3 11 19 8 17 -2 30 -5 30 -7z m867 -182 c-3 -10 -5 -2 -5 17 0 19 2
27 5 18 2 -10 2 -26 0 -35z m-17 -118 c-7 -47 -14 -84 -17 -81 -3 3 0 44 7 91
7 47 14 84 17 81 3 -3 0 -44 -7 -91z m-23 -127 c-3 -7 -5 -2 -5 12 0 14 2 19
5 13 2 -7 2 -19 0 -25z m413 -338 c28 -28 33 -60 27 -171 -3 -58 -1 -97 4 -93
5 3 9 -6 9 -20 0 -14 3 -26 8 -26 10 0 -4 -1215 -16 -1315 -6 -57 -18 -99 -41
-145 -18 -36 -38 -76 -44 -89 -7 -13 -24 -33 -39 -44 -26 -20 -27 -20 -60 0
-18 10 -37 29 -43 41 -5 12 -13 22 -17 22 -5 0 -8 11 -8 24 0 13 -5 26 -10 28
-17 5 -25 197 -11 256 10 40 10 117 -1 374 -7 178 -12 357 -11 398 3 148 3
176 2 215 -2 87 18 279 29 283 7 2 12 12 12 23 0 10 5 19 10 19 6 0 10 26 10
58 1 65 13 96 55 146 25 30 37 35 73 36 29 0 48 -6 62 -20z m-505 -550 c14
-102 44 -275 65 -385 22 -110 47 -261 56 -335 12 -108 34 -529 35 -697 0 -21
-28 -93 -74 -190 -123 -259 -147 -358 -146 -586 0 -84 4 -206 8 -271 9 -124 5
-169 -10 -144 -7 10 -9 9 -9 -5 0 -23 16 -54 44 -87 15 -18 16 -21 3 -10 -16
12 -20 12 -28 -1 -5 -8 -7 -20 -4 -26 2 -7 -3 -13 -12 -13 -14 0 -14 -3 3 -22
10 -13 12 -17 4 -10 -8 6 -18 12 -23 12 -6 0 13 -23 42 -52 28 -28 48 -54 43
-57 -4 -3 -15 -22 -25 -41 l-17 -35 0 63 c0 58 -1 62 -24 62 -22 0 -69 -34
-77 -57 -2 -6 -15 -14 -28 -18 l-24 -7 7 148 c4 82 11 352 15 599 l7 450 28
75 c92 249 97 283 89 625 -7 320 6 1248 18 1220 5 -11 20 -103 34 -205z m-585
-2969 c0 -4 -11 -6 -25 -3 -14 2 -25 6 -25 8 0 2 11 4 25 4 14 0 25 -4 25 -9z
m159 -1021 c33 -6 69 -6 102 0 54 10 83 4 55 -12 -26 -15 -19 -27 24 -38 28
-8 44 -19 55 -40 18 -35 14 -37 -29 -11 -17 10 -62 26 -99 36 -58 16 -78 17
-129 7 -35 -7 -66 -19 -74 -29 -13 -17 -14 -17 -7 2 6 17 2 16 -26 -8 -19 -15
-36 -25 -39 -22 -10 9 42 56 83 75 l40 18 -32 1 c-31 1 -41 10 -26 24 9 10 42
9 102 -3z m159 -102 c-3 -7 -15 -15 -29 -18 -18 -5 -11 -9 34 -19 37 -8 62
-20 72 -34 19 -27 19 -37 0 -37 -8 0 -15 7 -15 15 0 8 -2 15 -4 15 -2 0 -13 3
-23 6 -16 6 -16 5 2 -9 25 -20 6 -22 -21 -2 -15 11 -53 14 -166 15 -143 0
-147 -1 -177 -26 -50 -42 -40 0 11 47 42 38 67 51 52 27 -5 -8 0 -9 17 -4 13
4 51 12 83 17 33 5 62 11 64 14 3 3 27 5 55 5 34 0 47 -4 45 -12z m92 -369 c0
-24 -23 -21 -28 4 -2 10 3 17 12 17 10 0 16 -9 16 -21z"/>
<path d="M3347 11689 c7 -7 15 -10 18 -7 3 3 -2 9 -12 12 -14 6 -15 5 -6 -5z"/>
<path d="M3045 11383 c-61 -8 -142 -36 -201 -68 -86 -48 -151 -123 -197 -230
l-17 -40 27 35 c87 110 159 164 248 189 22 6 87 16 145 21 130 13 139 16 146
46 12 49 -32 63 -151 47z"/>
<path d="M2878 10987 c-15 -9 -29 -13 -32 -10 -6 6 -56 -43 -56 -55 0 -8 -34
-41 -58 -56 -7 -4 -25 0 -40 10 l-27 18 29 -35 c25 -29 26 -35 12 -37 -9 -2
-23 2 -31 8 -22 18 -18 2 6 -28 19 -25 19 -27 3 -39 -16 -12 -16 -13 -1 -13 9
0 22 -9 29 -20 16 -25 28 -26 21 -1 -6 22 15 66 53 110 34 41 49 40 24 -1 -25
-41 -27 -120 -4 -139 19 -16 16 -15 137 -24 93 -7 95 -7 111 17 36 55 32 131
-9 193 l-25 37 39 -22 c41 -23 75 -74 97 -144 7 -23 13 -32 13 -21 1 34 -56
180 -68 177 -7 -1 -10 2 -7 7 4 5 -14 24 -39 41 -55 38 -134 50 -177 27z m157
-28 c7 -7 1 -8 -20 -3 -46 11 -67 26 -25 19 19 -3 39 -10 45 -16z m40 -27 c-3
-3 -11 0 -18 7 -9 10 -8 11 6 5 10 -3 15 -9 12 -12z m-175 -82 c0 -23 -32 -43
-54 -34 -20 8 -20 18 0 38 22 23 54 21 54 -4z"/>
<path d="M2133 10558 c-12 -6 -27 -26 -33 -44 -18 -55 -6 -62 19 -11 23 48 27
50 74 47 15 -1 27 3 27 9 0 14 -58 13 -87 -1z"/>
<path d="M3366 10444 c-24 -23 -16 -26 35 -10 24 8 36 14 27 15 -9 1 -23 4
-31 7 -8 3 -22 -2 -31 -12z"/>
<path d="M3580 10452 c-8 -3 -22 -13 -30 -22 -8 -9 -24 -20 -34 -24 -29 -10
-7 -24 44 -26 79 -4 90 -2 90 21 0 13 -5 19 -13 16 -12 -4 -32 11 -34 26 -2
13 -7 15 -23 9z"/>
<path d="M3513 10443 c9 -2 23 -2 30 0 6 3 -1 5 -18 5 -16 0 -22 -2 -12 -5z"/>
<path d="M3508 10423 c7 -3 16 -2 19 1 4 3 -2 6 -13 5 -11 0 -14 -3 -6 -6z"/>
<path d="M2980 10308 c-11 -18 -20 -36 -20 -40 0 -13 24 -22 53 -20 21 2 40
-8 72 -35 23 -21 58 -46 76 -56 33 -17 33 -17 9 0 -13 10 -36 28 -50 41 l-25
23 50 -4 c28 -3 131 -15 230 -27 99 -12 204 -21 233 -21 47 0 52 -2 52 -22 0
-31 -18 -47 -54 -48 -17 0 -40 -5 -51 -10 -15 -7 -6 -8 32 -6 29 2 55 1 58 -2
10 -10 75 -10 75 -1 0 6 19 22 42 36 54 34 72 52 92 92 21 42 7 79 -24 62 -11
-6 -20 -15 -20 -21 0 -5 -11 -14 -23 -20 -18 -8 -49 -6 -128 11 -88 18 -113
20 -159 11 -30 -6 -71 -12 -90 -13 -21 -2 -34 -8 -33 -15 3 -14 -174 -6 -193
8 -6 5 -35 14 -65 20 -60 13 -69 21 -69 62 0 41 -44 38 -70 -5z"/>
<path d="M3328 10093 c6 -2 18 -2 25 0 6 3 1 5 -13 5 -14 0 -19 -2 -12 -5z"/>
<path d="M3393 10083 c9 -2 23 -2 30 0 6 3 -1 5 -18 5 -16 0 -22 -2 -12 -5z"/>
<path d="M3608 10060 c-1 -5 -43 -18 -91 -28 -48 -10 -84 -21 -81 -25 4 -4 34
-7 66 -7 68 0 118 21 118 50 0 21 -6 26 -12 10z"/>
<path d="M3168 7873 c7 -3 16 -2 19 1 4 3 -2 6 -13 5 -11 0 -14 -3 -6 -6z"/>
<path d="M3270 7860 c20 -5 39 -5 45 1 5 5 -8 9 -35 8 l-45 -1 35 -8z"/>
<path d="M3128 7623 c6 -2 18 -2 25 0 6 3 1 5 -13 5 -14 0 -19 -2 -12 -5z"/>
<path d="M3183 7613 c9 -2 25 -2 35 0 9 3 1 5 -18 5 -19 0 -27 -2 -17 -5z"/>
<path d="M4357 8256 c-37 -7 -70 -16 -75 -21 -4 -4 2 -5 13 -2 11 3 43 9 70
13 28 3 57 10 65 15 18 10 12 10 -73 -5z"/>
<path d="M4420 8008 c-41 -11 -79 -25 -85 -30 -7 -8 -4 -9 10 -3 11 4 53 15
93 25 40 9 76 20 79 24 10 10 -16 5 -97 -16z"/>
<path d="M4100 11867 c0 -3 12 -12 26 -22 15 -9 23 -12 20 -6 -7 11 -46 35
-46 28z"/>
<path d="M4532 10750 c0 -14 2 -19 5 -12 2 6 2 18 0 25 -3 6 -5 1 -5 -13z"/>
<path d="M4626 9789 c5 -144 37 -389 69 -531 47 -208 156 -448 280 -618 34
-47 74 -103 89 -125 14 -22 26 -35 26 -29 0 5 -4 14 -9 19 -5 6 -46 82 -92
170 -273 527 -312 651 -359 1135 l-9 95 5 -116z"/>
<path d="M4662 9715 c0 -16 2 -22 5 -12 2 9 2 23 0 30 -3 6 -5 -1 -5 -18z"/>
<path d="M4671 9664 c-2 -37 28 -186 55 -279 40 -139 115 -336 125 -329 13 7
3 43 -47 164 -52 128 -77 211 -108 355 -14 61 -25 100 -25 89z"/>
<path d="M2760 6725 c0 -8 4 -15 10 -15 5 0 7 7 4 15 -4 8 -8 15 -10 15 -2 0
-4 -7 -4 -15z"/>
<path d="M2672 6420 c0 -19 2 -27 5 -17 2 9 2 25 0 35 -3 9 -5 1 -5 -18z"/>
<path d="M2652 6260 c0 -19 2 -27 5 -17 2 9 2 25 0 35 -3 9 -5 1 -5 -18z"/>
<path d="M2640 6028 c0 -15 5 -30 10 -33 13 -8 13 25 0 45 -8 12 -10 9 -10
-12z"/>
<path d="M2931 4864 c0 -11 3 -14 6 -6 3 7 2 16 -1 19 -3 4 -6 -2 -5 -13z"/>
<path d="M3022 4310 c0 -14 2 -19 5 -12 2 6 2 18 0 25 -3 6 -5 1 -5 -13z"/>
<path d="M2931 3598 c-12 -65 -21 -147 -20 -193 l2 -80 8 94 c4 52 15 137 24
188 9 52 15 96 12 99 -2 3 -14 -46 -26 -108z"/>
<path d="M2947 2579 c-9 -6 -17 -14 -17 -19 0 -17 27 -11 34 6 8 22 5 25 -17
13z"/>
<path d="M3128 2393 c23 -2 61 -2 85 0 23 2 4 4 -43 4 -47 0 -66 -2 -42 -4z"/>
<path d="M3278 2305 c-2 -3 -42 -11 -89 -19 -59 -10 -72 -14 -45 -15 54 -1
166 19 166 30 0 9 -23 12 -32 4z"/>
<path d="M3901 1956 c-6 -7 -18 -35 -26 -62 -16 -53 -20 -87 -7 -67 4 6 21 15
37 19 17 4 43 14 60 22 28 14 28 16 10 23 -18 7 -18 8 -2 8 24 1 12 21 -12 21
-10 0 -24 -7 -31 -16 -8 -8 -23 -20 -34 -26 -20 -11 -20 -10 -6 8 8 10 21 23
28 27 14 9 16 43 3 51 -5 3 -14 0 -20 -8z"/>
<path d="M4020 1935 c13 -14 26 -22 29 -19 3 4 0 9 -6 11 -7 3 -13 9 -13 14 0
6 5 7 12 3 7 -4 8 -3 4 4 -4 7 -17 12 -28 12 -21 0 -21 0 2 -25z"/>
<path d="M4035 1840 c-8 -13 5 -13 25 0 13 8 13 10 -2 10 -9 0 -20 -4 -23 -10z"/>
<path d="M3999 1788 c-8 -7 -21 -21 -28 -30 -11 -15 -9 -15 33 1 63 23 80 41
40 41 -17 0 -37 -6 -45 -12z"/>
<path d="M4087 1769 c3 -11 14 -19 25 -19 25 0 19 21 -9 31 -17 6 -20 4 -16
-12z"/>
<path d="M2955 1697 c-11 -8 -14 -16 -8 -20 6 -4 18 2 28 13 21 23 8 27 -20 7z"/>
<path d="M3100 1700 c-13 -8 -13 -10 2 -10 9 0 20 5 23 10 8 13 -5 13 -25 0z"/>
<path d="M3208 1703 c6 -2 18 -2 25 0 6 3 1 5 -13 5 -14 0 -19 -2 -12 -5z"/>
<path d="M4180 1706 c0 -2 7 -7 16 -10 8 -3 12 -2 9 4 -6 10 -25 14 -25 6z"/>
<path d="M3337 1660 c17 -25 41 -54 54 -65 18 -16 17 -12 -8 25 -17 25 -41 54
-54 65 -18 16 -17 12 8 -25z"/>
<path d="M3196 1674 c-60 -22 -57 -27 12 -20 43 5 62 4 62 -4 0 -6 -4 -8 -10
-5 -5 3 -10 2 -10 -2 0 -5 14 -14 30 -20 33 -12 33 -11 -4 40 -22 31 -26 31
-80 11z"/>
<path d="M2988 1628 c-13 -18 -28 -40 -33 -48 -15 -25 22 8 47 42 28 41 16 46
-14 6z"/>
<path d="M4225 1600 l-29 -30 67 0 68 0 -34 30 c-19 17 -37 30 -39 30 -2 0
-17 -13 -33 -30z"/>
<path d="M2974 1538 c-25 -29 -69 -116 -62 -123 7 -7 63 79 77 118 13 33 10
34 -15 5z"/>
<path d="M3997 1553 c-10 -9 -9 -33 1 -33 4 0 8 9 9 20 2 21 0 24 -10 13z"/>
<path d="M4116 1483 c-12 -12 -6 -33 9 -33 8 0 15 6 15 14 0 17 -14 28 -24 19z"/>
<path d="M4692 819 c-37 -14 -142 -30 -258 -39 -107 -9 -106 -9 41 -5 141 4
201 13 235 34 21 14 9 20 -18 10z"/>
<path d="M4263 783 c9 -2 25 -2 35 0 9 3 1 5 -18 5 -19 0 -27 -2 -17 -5z"/>
<path d="M3460 745 c-14 -8 -20 -14 -14 -15 5 0 19 7 30 15 24 18 16 19 -16 0z"/>
<path d="M3398 723 c7 -3 16 -2 19 1 4 3 -2 6 -13 5 -11 0 -14 -3 -6 -6z"/>
<path d="M3333 713 c9 -2 23 -2 30 0 6 3 -1 5 -18 5 -16 0 -22 -2 -12 -5z"/>
<path d="M3455 585 c-87 -39 -443 -46 -565 -11 -30 8 -56 14 -58 12 -6 -7 108
-37 178 -48 101 -16 321 -4 402 21 37 12 70 26 73 31 7 12 8 12 -30 -5z"/>
</g>
</svg>
