<?xml version="1.0" standalone="no"?>
<!DOCTYPE svg PUBLIC "-//W3C//DTD SVG 20010904//EN"
 "http://www.w3.org/TR/2001/REC-SVG-20010904/DTD/svg10.dtd">
<svg version="1.0" xmlns="http://www.w3.org/2000/svg"
 width="225.000000pt" height="225.000000pt" viewBox="0 0 225.000000 225.000000"
 preserveAspectRatio="xMidYMid meet">

<g transform="translate(0.000000,225.000000) scale(0.100000,-0.100000)"
fill="#000000" stroke="none">
<path d="M1250 2173 c-25 -3 -49 -8 -54 -14 -6 -5 -24 -9 -42 -9 -17 0 -48
-11 -68 -25 -20 -14 -41 -25 -47 -25 -17 0 -74 -32 -82 -46 -4 -8 -14 -14 -22
-14 -25 0 -63 -59 -75 -115 -7 -35 -16 -55 -23 -52 -12 4 -12 30 -2 73 2 11
16 33 30 49 36 43 16 60 -71 60 -62 0 -67 -2 -96 -34 -26 -29 -30 -40 -25 -76
2 -24 13 -60 23 -81 l19 -39 68 3 c80 4 89 -6 58 -67 -29 -55 -27 -78 14 -162
38 -80 44 -127 19 -164 l-16 -25 -18 22 -17 22 -17 -27 c-26 -38 -17 -77 23
-104 19 -13 45 -23 59 -23 34 0 124 53 161 95 38 44 51 103 26 117 -9 6 -24
19 -33 29 -9 10 -22 19 -30 19 -9 0 -12 10 -10 33 2 17 8 31 14 30 7 -1 15 20
19 53 4 32 14 63 24 73 21 21 170 71 212 71 16 0 29 4 29 9 0 13 -40 21 -68
14 -23 -5 -22 -4 10 40 28 38 37 44 58 39 40 -9 151 -70 140 -77 -19 -12 -10
-24 24 -31 45 -8 75 -39 57 -57 -11 -9 -14 -9 -18 1 -3 6 -17 12 -33 12 -28 0
-57 -29 -73 -71 -13 -36 49 -79 69 -48 4 8 9 7 15 -2 4 -7 5 7 2 32 -3 24 -12
50 -21 57 -14 11 -14 12 1 12 10 0 19 -11 23 -27 9 -43 12 -50 13 -29 1 10 12
29 25 41 35 32 60 125 52 188 -7 53 -48 141 -60 130 -4 -4 -4 0 -1 9 4 10 -6
29 -31 53 -61 61 -94 70 -234 58z m180 -457 c0 -3 -4 -8 -10 -11 -5 -3 -10 -1
-10 4 0 6 5 11 10 11 6 0 10 -2 10 -4z m-469 -26 c-2 -8 -9 -39 -16 -69 l-11
-54 -27 32 c-34 41 -36 88 -4 101 32 13 63 8 58 -10z"/>
<path d="M1153 1756 c-14 -7 -23 -20 -23 -35 l0 -24 21 27 c11 14 25 26 30 26
6 0 3 -7 -5 -16 -40 -39 5 -122 51 -95 10 6 14 11 9 11 -6 0 -1 6 10 14 17 13
18 18 7 45 -15 41 -6 40 13 -1 l15 -33 -6 30 c-13 60 -63 81 -122 51z m37 -46
c0 -5 -4 -10 -10 -10 -5 0 -10 5 -10 10 0 6 5 10 10 10 6 0 10 -4 10 -10z m50
0 c0 -5 -2 -10 -4 -10 -3 0 -8 5 -11 10 -3 6 -1 10 4 10 6 0 11 -4 11 -10z"/>
<path d="M1010 1595 c0 -8 4 -15 10 -15 5 0 7 7 4 15 -4 8 -8 15 -10 15 -2 0
-4 -7 -4 -15z"/>
<path d="M1348 1533 c6 -2 18 -2 25 0 6 3 1 5 -13 5 -14 0 -19 -2 -12 -5z"/>
<path d="M1400 1470 c-12 -8 -9 -15 19 -42 32 -32 33 -32 27 -8 -3 14 -6 33
-6 43 0 19 -17 22 -40 7z"/>
<path d="M1150 1460 c0 -4 12 -11 28 -16 58 -16 71 -24 65 -40 -3 -7 3 -21 12
-30 14 -15 18 -15 26 -3 5 8 7 19 4 24 -3 6 -8 17 -11 26 -5 16 -124 53 -124
39z"/>
<path d="M1075 1370 c-8 -13 18 -50 46 -64 12 -6 25 -18 27 -26 4 -11 1 -10
-12 3 -10 9 -19 17 -21 17 -2 0 -3 -34 -2 -75 1 -42 -4 -80 -10 -86 -7 -7 -9
-3 -5 18 5 28 5 28 -17 9 -11 -11 -21 -24 -21 -29 0 -6 -10 -21 -22 -34 l-21
-23 26 -57 c15 -32 27 -52 27 -45 0 7 20 46 44 85 53 88 59 106 57 174 -2 121
36 16 75 -204 13 -75 12 -86 -2 -124 -17 -41 -21 -43 -66 -24 -14 5 -18 2 -18
-12 0 -27 -11 -35 -28 -20 -13 10 -15 9 -9 -5 3 -10 2 -20 -3 -23 -6 -4 -10
-2 -10 3 0 6 -11 13 -24 16 -14 3 -38 17 -54 31 -21 18 -32 22 -35 13 -2 -7
-3 0 -1 15 3 24 1 27 -14 22 -12 -3 -29 4 -46 20 -15 14 -32 25 -39 25 -7 0
-6 -4 3 -11 11 -8 8 -9 -14 -4 -24 5 -27 3 -22 -11 5 -13 2 -15 -14 -11 -11 3
-18 1 -14 -4 3 -5 -2 -9 -11 -9 -9 0 -15 -6 -13 -12 7 -19 87 -47 135 -47 23
-1 44 -7 47 -13 5 -10 7 -10 12 1 5 11 10 8 20 -10 7 -13 13 -18 14 -11 0 9 7
9 31 -3 33 -17 89 -17 101 0 5 6 8 6 8 -2 0 -7 13 -9 40 -6 39 6 40 5 40 -25
0 -46 -25 -55 -146 -50 -98 3 -109 1 -105 -24 0 -5 -3 -8 -9 -8 -5 0 -10 -11
-10 -24 0 -13 -7 -40 -16 -61 -8 -20 -13 -39 -11 -41 3 -3 12 14 21 36 11 28
20 39 29 33 6 -4 50 -12 97 -18 l85 -10 3 -48 c2 -37 0 -47 -12 -47 -23 0 -21
-112 4 -202 13 -48 17 -75 10 -82 -6 -6 -10 -29 -10 -53 0 -43 17 -63 50 -60
8 1 34 -5 56 -12 46 -15 134 -5 141 15 3 9 -7 8 -34 -1 -40 -14 -53 -8 -53 28
0 11 8 17 23 17 19 0 17 3 -11 17 -18 8 -44 29 -57 45 -23 27 -25 38 -25 126
0 123 8 170 29 176 19 5 -57 -4 -79 -10 -12 -3 -14 6 -12 46 4 45 6 49 23 39
11 -5 19 -6 19 0 0 5 11 12 24 15 17 4 23 11 20 23 -2 10 4 51 14 91 13 50 15
72 7 68 -16 -6 -32 24 -40 76 -6 40 -4 46 13 50 24 7 37 -2 38 -22 1 -8 6 -26
13 -40 11 -23 11 -23 7 -2 -2 12 0 22 5 22 5 0 10 -6 10 -12 1 -7 3 -20 4 -28
3 -35 18 -69 31 -74 8 -3 14 -1 14 4 0 6 -5 10 -11 10 -5 0 -8 4 -5 9 4 5 0
11 -6 14 -10 3 -8 9 5 24 20 23 22 36 5 30 -9 -2 -20 26 -35 87 -12 50 -22 83
-22 74 -1 -24 -29 -48 -55 -48 -25 0 -36 29 -36 96 0 41 -47 193 -66 215 -8 8
-14 21 -14 27 0 18 -39 34 -71 30 -29 -5 -40 6 -16 15 9 4 9 6 0 6 -6 1 -15
-3 -18 -9z m65 -133 c0 -18 -2 -19 -10 -7 -13 20 -13 43 0 35 6 -3 10 -16 10
-28z m115 -377 c-3 -5 -14 -10 -23 -10 -15 0 -15 2 -2 10 20 13 33 13 25 0z
m25 -630 c0 -5 -4 -10 -10 -10 -5 0 -10 5 -10 10 0 6 5 10 10 10 6 0 10 -4 10
-10z"/>
<path d="M1338 1345 c24 -33 46 -128 36 -158 -4 -13 -2 -17 5 -13 15 10 14
115 -2 145 -6 13 -23 31 -37 40 l-24 16 22 -30z"/>
<path d="M1290 1344 c0 -8 5 -12 10 -9 6 3 10 10 10 16 0 5 -4 9 -10 9 -5 0
-10 -7 -10 -16z"/>
<path d="M945 1280 c-4 -6 -11 -8 -16 -5 -19 13 -99 -93 -99 -132 0 -15 -7
-40 -14 -55 -8 -16 -11 -28 -5 -28 5 0 9 -8 9 -17 0 -14 2 -15 9 -5 4 8 11 13
15 13 20 -3 26 0 21 9 -3 6 -2 10 4 10 6 0 9 13 7 29 -2 19 2 32 10 35 8 3 14
10 14 16 0 6 13 31 30 55 19 27 28 50 24 62 -4 13 -3 14 3 5 8 -10 12 -10 23
3 10 13 9 15 -8 15 -12 0 -24 -5 -27 -10z m-79 -150 c0 -11 -4 -20 -8 -20 -4
0 -5 -7 -2 -15 4 -8 1 -15 -5 -15 -6 0 -9 -6 -7 -12 1 -7 1 -10 -1 -5 -3 4 -9
4 -15 1 -6 -4 -6 2 1 14 6 11 15 32 21 46 11 31 16 33 16 6z"/>
<path d="M1342 1080 c0 -14 2 -19 5 -12 2 6 2 18 0 25 -3 6 -5 1 -5 -13z"/>
<path d="M1350 819 c0 -5 5 -7 10 -4 6 3 10 8 10 11 0 2 -4 4 -10 4 -5 0 -10
-5 -10 -11z"/>
<path d="M1362 775 c0 -16 2 -22 5 -12 2 9 2 23 0 30 -3 6 -5 -1 -5 -18z"/>
<path d="M1371 694 c13 -67 31 -124 40 -124 5 0 2 17 -5 38 -7 20 -17 56 -21
80 -4 23 -10 44 -15 47 -4 2 -3 -16 1 -41z"/>
<path d="M1030 530 c-15 -28 -4 -59 26 -72 23 -11 34 -38 14 -38 -5 0 -7 -6
-4 -14 3 -8 1 -17 -5 -21 -6 -3 -11 -26 -11 -50 0 -24 -4 -46 -9 -49 -5 -3
-11 -15 -14 -26 -3 -11 -1 -18 4 -14 5 3 6 -3 2 -12 -5 -14 -3 -16 12 -11 14
6 16 5 7 -6 -9 -10 -8 -17 0 -25 8 -8 9 -12 1 -12 -6 0 -14 8 -17 17 -5 12
-10 13 -18 5 -8 -8 -8 -15 2 -27 7 -9 9 -15 4 -14 -50 9 -57 -17 -14 -49 24
-18 43 -22 105 -22 41 0 75 3 75 8 0 19 -32 51 -49 49 -11 -1 -18 -4 -15 -8 2
-4 -7 -9 -21 -11 -17 -4 -25 -1 -25 8 0 18 37 37 53 27 6 -4 -1 7 -17 24 -17
18 -33 30 -38 27 -16 -10 2 110 32 213 17 58 29 107 28 108 -2 1 -24 5 -50 9
-41 6 -48 4 -58 -14z m123 -405 c-3 -9 -8 -14 -10 -11 -3 3 -2 9 2 15 9 16 15
13 8 -4z"/>
<path d="M1138 73 c6 -2 18 -2 25 0 6 3 1 5 -13 5 -14 0 -19 -2 -12 -5z"/>
</g>
</svg>
