<?xml version="1.0" standalone="no"?>
<!DOCTYPE svg PUBLIC "-//W3C//DTD SVG 20010904//EN"
 "http://www.w3.org/TR/2001/REC-SVG-20010904/DTD/svg10.dtd">
<svg version="1.0" xmlns="http://www.w3.org/2000/svg"
 width="155.000000pt" height="148.000000pt" viewBox="0 0 155.000000 148.000000"
 preserveAspectRatio="xMidYMid meet">

<g transform="translate(0.000000,148.000000) scale(0.100000,-0.100000)"
fill="#000000" stroke="none">
<path d="M0 815 l0 -665 40 0 40 0 0 -54 0 -53 61 -7 c34 -3 120 -6 192 -6 71
0 146 -5 167 -11 28 -8 69 -8 166 2 71 7 182 12 247 10 74 -1 117 1 117 8 0 6
-22 9 -54 7 -80 -5 -89 6 -42 49 38 33 38 35 15 36 -22 0 -23 1 -4 9 19 8 18
9 -4 9 -24 1 -24 1 -5 16 17 13 17 14 2 15 -21 0 -23 11 -6 28 8 8 48 12 113
12 55 0 191 3 303 7 l202 6 0 624 0 623 -775 0 -775 0 0 -665z m978 535 c7
-11 9 -20 4 -20 -10 0 -32 22 -32 32 0 15 15 8 28 -12z m-38 -15 c7 -14 10
-28 7 -32 -4 -3 -7 -1 -7 6 0 7 -4 9 -10 6 -5 -3 -10 -2 -10 4 0 5 -3 16 -6
25 -10 26 11 18 26 -9z m-90 -42 c11 -13 14 -34 12 -71 -4 -57 6 -79 33 -68
15 5 15 9 4 23 -12 15 -11 16 9 11 20 -6 21 -4 10 9 -11 14 -11 15 2 11 8 -2
16 -14 18 -26 2 -13 8 -19 14 -16 7 5 8 -8 3 -42 -9 -61 -9 -61 -52 -79 -46
-20 -53 -19 -53 5 0 11 -6 20 -12 20 -8 1 -6 6 5 14 25 19 21 26 -14 26 -23 0
-30 -4 -26 -15 5 -11 1 -12 -19 -5 -38 15 -71 12 -90 -7 -13 -14 -18 -15 -22
-5 -2 7 -16 25 -30 40 -20 19 -22 24 -9 19 14 -5 20 -2 24 13 3 11 10 20 15
20 6 0 7 7 4 16 -3 8 -2 12 4 9 6 -3 10 -14 10 -23 1 -16 1 -16 11 1 5 9 15
17 20 17 6 0 8 -4 5 -9 -3 -5 1 -14 10 -22 12 -10 18 -9 32 4 10 11 12 17 4
17 -7 0 -12 5 -12 10 0 7 6 7 20 0 15 -8 20 -8 21 2 1 7 3 23 4 36 1 12 -2 25
-6 28 -13 8 -11 21 7 38 20 20 26 20 44 -1z m90 -49 c0 -8 -4 -12 -10 -9 -5 3
-10 10 -10 16 0 5 5 9 10 9 6 0 10 -7 10 -16z m-170 -255 c0 -5 -4 -9 -10 -9
-5 0 -10 7 -10 16 0 8 5 12 10 9 6 -3 10 -10 10 -16z m-114 -27 c-8 -9 -19
-13 -22 -9 -10 9 16 38 28 31 6 -4 4 -13 -6 -22z m272 5 c8 -9 4 -15 -14 -24
-25 -11 -29 -7 -18 21 7 19 18 20 32 3z m-107 -30 c-16 -16 -25 -1 -10 16 8 8
16 11 18 5 2 -5 -2 -15 -8 -21z m-154 -20 c-8 -21 -97 -157 -103 -157 -3 0 9
26 27 58 18 31 40 69 49 84 15 28 36 39 27 15z m281 -44 c11 -27 23 -61 26
-78 l6 -30 -14 30 c-9 17 -15 36 -16 43 0 6 -4 12 -10 12 -5 0 -10 8 -10 18 0
13 -2 14 -9 3 -7 -11 -10 -9 -16 8 -3 12 -11 19 -16 16 -5 -3 -6 1 -3 9 12 32
41 17 62 -31z m-181 -70 c-2 -21 -4 -6 -4 32 0 39 2 55 4 38 2 -18 2 -50 0
-70z m95 47 c-2 -22 -6 -40 -8 -40 -2 0 -4 18 -4 40 0 22 3 40 8 40 4 0 6 -18
4 -40z m-5 -152 c-2 -13 -4 -3 -4 22 0 25 2 35 4 23 2 -13 2 -33 0 -45z m-167
12 c-16 -31 -23 -19 -9 16 6 16 13 24 16 17 2 -7 -1 -22 -7 -33z m67 -12 c-2
-13 -4 -5 -4 17 -1 22 1 32 4 23 2 -10 2 -28 0 -40z m243 27 c0 -8 -2 -15 -4
-15 -2 0 -6 7 -10 15 -3 8 -1 15 4 15 6 0 10 -7 10 -15z m-440 -45 c0 -5 -5
-10 -11 -10 -5 0 -7 5 -4 10 3 6 8 10 11 10 2 0 4 -4 4 -10z m454 -5 c4 -11
-1 -15 -19 -15 -26 0 -34 15 -12 23 20 9 25 8 31 -8z m3 -61 c-3 -3 -12 -4
-19 -1 -8 3 -5 6 6 6 11 1 17 -2 13 -5z m-434 -61 c-8 -52 -13 -54 -13 -5 0
23 4 42 9 42 6 0 7 -17 4 -37z m415 15 c5 -7 13 -28 17 -46 8 -40 -7 -62 -43
-62 -14 0 -22 3 -18 7 4 4 15 8 24 8 22 0 26 26 8 50 -14 20 -15 20 -25 -5
-10 -25 -10 -25 -10 6 -1 44 26 68 47 42z m-341 -230 c-3 -8 -6 -5 -6 6 -1 11
2 17 5 13 3 -3 4 -12 1 -19z m-30 -79 c-8 -21 -13 -26 -15 -15 -2 10 2 23 8
31 18 22 20 18 7 -16z m193 5 c0 -8 -5 -12 -10 -9 -6 4 -8 11 -5 16 9 14 15
11 15 -7z m120 -22 c0 -13 -23 -32 -39 -32 -11 0 -10 4 4 20 19 21 35 26 35
12z m-125 -48 c-8 -6 -12 -14 -9 -17 3 -3 7 -16 9 -29 3 -12 7 -35 11 -50 6
-28 6 -28 -46 -28 l-52 0 6 32 c4 18 8 46 10 61 1 15 9 33 16 40 10 9 11 9 6
0 -12 -21 13 -15 26 6 9 14 14 16 24 7 10 -9 10 -13 -1 -22z m-187 -2 c20 -3
14 -19 -10 -25 -12 -4 -19 -9 -16 -13 4 -3 -5 -17 -20 -30 l-27 -23 26 -1 c30
0 71 -31 61 -47 -10 -15 -80 -23 -108 -12 -20 7 -24 14 -19 32 3 12 3 17 -2
11 -5 -7 -28 -8 -68 -3 -33 4 -88 8 -122 8 -58 1 -89 13 -61 24 8 3 6 6 -4 6
-10 1 -18 -6 -18 -14 0 -11 -11 -15 -40 -15 -29 0 -40 4 -40 15 0 9 10 15 26
15 19 0 25 4 21 14 -9 23 37 32 213 42 63 3 121 9 127 13 11 6 45 7 81 3z"/>
<path d="M585 180 c-13 -6 -15 -9 -5 -9 8 0 22 4 30 9 18 12 2 12 -25 0z"/>
</g>
</svg>
