<?xml version="1.0" standalone="no"?>
<!DOCTYPE svg PUBLIC "-//W3C//DTD SVG 20010904//EN"
 "http://www.w3.org/TR/2001/REC-SVG-20010904/DTD/svg10.dtd">
<svg version="1.0" xmlns="http://www.w3.org/2000/svg"
 width="168.000000pt" height="300.000000pt" viewBox="0 0 168.000000 300.000000"
 preserveAspectRatio="xMidYMid meet">

<g transform="translate(0.000000,300.000000) scale(0.100000,-0.100000)"
fill="#000000" stroke="none">
<path d="M985 2853 c13 -35 17 -73 8 -73 -5 0 -36 13 -69 29 -71 34 -127 51
-171 51 -44 0 -41 -14 10 -44 26 -16 35 -26 24 -26 -10 0 -16 -3 -14 -7 3 -5
-22 -6 -55 -5 -51 3 -60 1 -55 -11 6 -16 -29 -27 -90 -27 -30 0 -34 -3 -28
-17 21 -51 20 -56 -11 -49 -16 4 -40 19 -52 34 l-24 27 6 -53 c3 -29 12 -67
20 -83 8 -17 12 -38 9 -47 -7 -19 -46 -58 -63 -64 -9 -3 -8 -14 4 -41 9 -22
13 -50 10 -66 -5 -24 -1 -32 20 -46 21 -14 25 -24 24 -63 0 -25 -7 -52 -14
-60 -43 -42 29 -160 99 -162 10 0 15 5 12 10 -3 6 -17 10 -30 10 -13 0 -27 5
-31 12 -5 8 -2 9 9 5 17 -6 21 2 17 37 -1 12 2 16 11 11 9 -6 11 5 6 48 -7 67
6 82 30 33 20 -43 43 -55 43 -22 0 13 9 34 19 47 l20 24 -6 -41 c-3 -28 -1
-44 7 -49 9 -6 11 -4 5 5 -6 10 -4 11 11 5 10 -4 29 -8 42 -8 24 1 30 -12 10
-20 -10 -4 -10 -6 -1 -6 6 -1 15 4 18 9 5 8 11 7 20 0 29 -24 37 0 33 107 l-3
105 104 54 c98 52 105 54 138 42 18 -7 40 -20 48 -28 22 -25 54 -187 48 -242
-6 -49 -4 -50 35 -47 4 0 6 8 5 17 -4 33 5 44 27 32 24 -13 28 4 5 18 -14 7
-14 13 0 51 8 24 15 45 15 46 0 2 -10 1 -22 -1 -23 -4 -23 -4 -2 5 32 14 62
121 35 121 -6 0 -6 13 0 33 10 35 3 103 -12 113 -6 3 -17 0 -26 -8 -13 -10
-17 -10 -20 0 -3 6 -8 10 -13 7 -4 -3 -15 11 -24 30 -18 38 -71 97 -79 89 -6
-6 -87 34 -87 42 0 3 23 3 50 -1 l51 -7 -7 29 c-9 34 -38 74 -67 90 -31 17
-40 16 -32 -4z m-35 -181 c0 -5 10 -14 23 -20 12 -6 17 -11 11 -11 -7 -1 -22
8 -35 19 -13 10 -18 19 -11 20 6 0 12 -4 12 -8z m-55 -37 l30 -14 -27 4 c-32
4 -72 24 -48 24 8 0 29 -6 45 -14z"/>
<path d="M945 2373 c-20 -5 -35 -20 -35 -35 0 -5 36 -8 81 -8 44 0 89 -5 100
-10 28 -16 25 15 -3 34 -25 16 -112 27 -143 19z"/>
<path d="M975 2274 c-14 -15 -25 -33 -25 -40 0 -7 -3 -20 -7 -30 -5 -14 -3
-16 12 -10 10 3 21 2 24 -3 3 -5 22 -11 41 -12 29 -3 35 -1 38 17 2 15 -4 23
-18 27 -16 4 -20 11 -15 25 4 15 1 22 -12 25 -12 3 -10 5 8 6 30 1 65 -33 72
-69 4 -22 4 -21 6 6 3 74 -75 111 -124 58z"/>
<path d="M814 2086 c-9 -22 2 -46 21 -46 22 0 75 28 75 40 0 6 -6 10 -14 10
-7 0 -27 3 -45 6 -23 5 -32 2 -37 -10z"/>
<path d="M642 2018 c2 -26 12 -39 42 -58 21 -14 32 -26 25 -27 -8 -1 -34 -4
-59 -8 -66 -8 -79 -19 -55 -45 11 -12 25 -18 36 -15 19 6 99 -22 99 -35 0 -5
7 -16 16 -24 38 -39 152 2 167 60 4 15 5 14 6 -6 2 -25 22 -60 35 -60 4 0 12
13 17 29 10 29 38 45 73 41 13 -1 16 2 10 12 -6 10 -4 10 9 -1 14 -11 20 -11
32 -1 23 19 18 33 -10 28 -13 -3 -22 -1 -19 3 3 5 -7 11 -21 15 -24 6 -36 24
-16 24 14 0 71 50 71 62 0 6 -7 5 -16 -3 -9 -7 -22 -14 -30 -15 -8 -1 -28 -14
-44 -28 -63 -53 -153 -57 -171 -8 -7 19 -5 22 19 22 l27 1 -30 14 -30 13 45 2
c66 2 98 17 35 17 -27 -1 -72 3 -100 8 -47 8 -49 7 -35 -9 21 -27 21 -46 -2
-46 -11 0 -22 8 -25 20 -3 11 -12 20 -20 20 -8 0 -21 7 -29 15 -9 8 -24 15
-35 15 -17 0 -20 -6 -17 -32z"/>
<path d="M610 1772 c1 -23 129 -131 148 -125 30 11 -7 72 -61 99 -39 21 -87
35 -87 26z"/>
<path d="M948 1767 c-29 -11 -37 -27 -15 -27 8 0 22 9 32 20 10 11 16 20 14
19 -2 -1 -16 -6 -31 -12z"/>
<path d="M1078 1763 c7 -3 16 -2 19 1 4 3 -2 6 -13 5 -11 0 -14 -3 -6 -6z"/>
<path d="M1004 1750 c-26 -10 -41 -30 -22 -30 7 1 29 9 48 20 26 14 30 19 15
19 -11 0 -30 -4 -41 -9z"/>
<path d="M763 1733 c9 -2 23 -2 30 0 6 3 -1 5 -18 5 -16 0 -22 -2 -12 -5z"/>
<path d="M911 1549 c-1 -63 4 -111 14 -139 8 -23 15 -62 15 -86 0 -24 5 -55
12 -69 9 -21 9 -31 0 -46 -7 -10 -8 -19 -3 -19 5 0 7 -9 4 -20 -3 -11 -10 -20
-17 -20 -6 0 -22 -3 -36 -7 -23 -6 -24 -5 -11 10 10 13 -4 10 -55 -12 l-69
-29 0 -60 c0 -33 -3 -64 -7 -68 -5 -4 -8 4 -8 19 0 14 -4 29 -10 32 -5 3 -10
17 -10 29 0 20 -6 24 -49 30 -27 3 -56 4 -65 0 -20 -8 -21 9 -1 26 11 9 12 16
5 25 -13 15 -53 7 -47 -9 2 -6 10 -29 16 -51 7 -22 18 -53 24 -70 8 -19 12
-110 13 -254 1 -194 3 -226 17 -236 14 -10 11 -14 -24 -25 -57 -19 -71 -55
-32 -86 15 -13 31 -23 34 -24 3 0 10 -10 16 -23 8 -17 7 -28 -3 -42 -21 -29
-18 -49 4 -27 11 10 14 20 8 24 -6 4 2 11 17 17 34 13 91 -4 67 -19 -13 -9
-13 -10 0 -10 13 0 13 -1 0 -10 -11 -7 -12 -10 -2 -10 8 0 12 -5 10 -11 -2 -7
-28 -12 -63 -11 -57 0 -60 -1 -61 -25 l-2 -25 22 21 c12 12 32 21 44 21 24 0
81 -55 82 -80 1 -9 5 -7 10 7 5 12 5 48 0 85 -14 94 -13 109 10 115 11 3 21 9
21 14 2 14 4 22 13 47 4 13 2 43 -4 70 -11 41 -9 63 14 177 14 72 30 155 34
185 8 55 8 54 15 -45 3 -55 11 -116 16 -135 10 -33 14 -126 10 -195 -3 -55 8
-98 32 -115 22 -17 22 -19 9 -93 -7 -42 -10 -83 -7 -91 3 -8 2 -18 -3 -21 -6
-4 -10 -17 -10 -29 0 -30 31 -37 154 -34 l91 2 -95 5 -95 6 3 29 c2 16 14 43
28 59 23 27 23 30 8 42 -9 6 -14 17 -10 23 4 7 3 12 -3 12 -5 0 -8 8 -6 18 2
13 11 17 42 16 33 0 39 3 36 16 -3 10 6 26 22 38 35 27 45 85 20 112 -10 11
-15 20 -11 20 3 0 -1 16 -9 36 -16 39 -19 166 -6 347 l6 97 -49 0 c-46 0 -48
-1 -42 -25 5 -19 2 -25 -9 -25 -14 0 -15 10 -10 68 8 75 -6 234 -36 422 -33
209 -36 219 -38 109z m-262 -505 c4 3 13 1 21 -5 11 -6 8 -9 -12 -9 -20 0 -28
5 -27 18 0 10 3 12 6 4 2 -6 8 -10 12 -8z m108 -116 c-3 -7 -5 -2 -5 12 0 14
2 19 5 13 2 -7 2 -19 0 -25z m260 -80 c-3 -8 -6 -5 -6 6 -1 11 2 17 5 13 3 -3
4 -12 1 -19z m10 -140 c-3 -7 -5 -2 -5 12 0 14 2 19 5 13 2 -7 2 -19 0 -25z
m-337 -268 c0 -5 -15 -9 -32 -9 l-33 1 30 8 c17 4 31 8 33 9 1 0 2 -3 2 -9z
m30 0 c0 -5 -4 -10 -10 -10 -5 0 -10 5 -10 10 0 6 5 10 10 10 6 0 10 -4 10
-10z m45 -211 c10 -29 3 -31 -18 -3 -15 20 -15 24 -3 24 8 0 18 -9 21 -21z
m224 -5 c-15 -16 -25 -21 -28 -13 -2 7 4 18 15 26 30 22 39 15 13 -13z"/>
<path d="M626 1563 c-3 -21 -11 -91 -17 -156 -8 -71 -18 -124 -26 -132 -7 -8
-13 -20 -13 -29 0 -8 -5 -18 -10 -21 -8 -5 -7 -11 1 -21 17 -21 -11 -28 -87
-20 -75 8 -78 -4 -9 -35 73 -32 71 -69 -3 -69 -34 0 -43 -3 -32 -10 8 -5 36
-10 61 -10 l46 0 6 40 c5 40 29 75 42 62 5 -4 5 -1 1 6 -4 7 2 29 14 49 15 26
20 46 16 68 -4 18 0 64 8 102 22 104 30 199 18 207 -6 3 -13 -9 -16 -31z"/>
<path d="M1120 1305 c0 -13 4 -14 20 -5 11 6 20 13 20 15 0 3 -9 5 -20 5 -11
0 -20 -7 -20 -15z"/>
<path d="M1191 1284 c-63 -17 -73 -22 -65 -35 3 -6 10 -6 17 -1 7 5 36 17 65
26 28 10 52 19 52 22 0 6 -9 4 -69 -12z"/>
<path d="M416 1229 c14 -13 30 -19 45 -17 22 4 21 6 -13 21 -49 22 -57 21 -32
-4z"/>
<path d="M1137 1228 c-8 -5 -8 -10 -2 -16 6 -6 25 -3 50 8 l40 18 -38 -1 c-22
-1 -44 -5 -50 -9z"/>
<path d="M1250 1212 c-14 -2 -41 -8 -61 -13 -36 -9 -37 -10 -34 -55 2 -26 7
-50 12 -54 12 -10 104 0 97 11 -3 5 -10 7 -15 3 -6 -3 -26 -3 -45 0 -24 5 -34
12 -34 26 0 23 36 50 66 50 12 0 27 7 34 15 16 19 12 22 -20 17z"/>
<path d="M1120 1109 c0 -5 5 -7 10 -4 6 3 10 8 10 11 0 2 -4 4 -10 4 -5 0 -10
-5 -10 -11z"/>
<path d="M1022 1085 c10 -10 98 -14 98 -5 0 6 -23 10 -52 10 -28 0 -49 -2 -46
-5z"/>
<path d="M1186 995 c-14 -22 -20 -25 -27 -14 -7 11 -9 10 -9 -3 0 -10 -4 -18
-10 -18 -19 0 -10 -28 15 -44 32 -21 58 -20 78 2 24 27 21 33 -10 17 -21 -11
-31 -11 -47 -2 -21 12 -21 12 1 15 14 2 25 13 29 27 10 39 -1 50 -20 20z"/>
<path d="M480 984 c0 -36 37 -63 59 -41 8 8 11 8 11 0 0 -17 -54 -32 -74 -21
-25 14 -33 1 -11 -16 14 -10 26 -11 44 -4 50 19 65 44 34 55 -10 3 -28 15 -40
26 -22 20 -23 20 -23 1z"/>
<path d="M1068 313 c7 -3 16 -2 19 1 4 3 -2 6 -13 5 -11 0 -14 -3 -6 -6z"/>
<path d="M1072 256 c16 -8 32 -18 38 -21 15 -9 12 2 -6 19 -8 9 -25 16 -37 16
-20 0 -19 -1 5 -14z"/>
<path d="M675 131 c-97 -6 -98 -6 -47 -14 55 -8 135 -1 162 14 13 7 13 8 0 7
-8 -1 -60 -4 -115 -7z"/>
</g>
</svg>
